<svg width="27" height="27" viewBox="0 0 27 27" fill="none" xmlns="http://www.w3.org/2000/svg">
<path d="M15.2324 22.7875V14.0922H18.2069L18.6531 10.7025H15.2324V8.53865C15.2324 7.55756 15.509 6.88896 16.945 6.88896L18.7735 6.88822V3.85635C18.4573 3.81604 17.3719 3.72363 16.1085 3.72363C13.4704 3.72363 11.6644 5.30304 11.6644 8.20294V10.7025H8.68091V14.0922H11.6644V22.7875H15.2324Z" fill="white"/>
<mask id="mask0_6_175" style="mask-type:alpha" maskUnits="userSpaceOnUse" x="8" y="3" width="11" height="20">
<path d="M15.2324 22.7875V14.0922H18.2069L18.6531 10.7025H15.2324V8.53865C15.2324 7.55756 15.509 6.88896 16.945 6.88896L18.7735 6.88822V3.85635C18.4573 3.81604 17.3719 3.72363 16.1085 3.72363C13.4704 3.72363 11.6644 5.30304 11.6644 8.20294V10.7025H8.68091V14.0922H11.6644V22.7875H15.2324Z" fill="white"/>
</mask>
<g mask="url(#mask0_6_175)">
<path d="M0.340576 0.148926H26.5533V26.3617H0.340576V0.148926Z" fill="white"/>
</g>
</svg>
