<svg width="27" height="27" viewBox="0 0 27 27" fill="none" xmlns="http://www.w3.org/2000/svg">
<path d="M13.4469 11.5874V14.9235H18.1659C17.477 16.8652 15.6221 18.2597 13.4469 18.2597C10.6879 18.2597 8.44262 16.0145 8.44262 13.2555C8.44262 10.4965 10.6879 8.25121 13.4469 8.25121C14.6429 8.25121 15.7939 8.67991 16.688 9.4589L18.8798 6.94343C17.3785 5.63565 15.4502 4.91504 13.4469 4.91504C8.84796 4.91504 5.10645 8.65655 5.10645 13.2555C5.10645 17.8544 8.84796 21.5959 13.4469 21.5959C18.0458 21.5959 21.7873 17.8544 21.7873 13.2555V11.5874H13.4469Z" fill="black"/>
<mask id="mask0_6_164" style="mask-type:alpha" maskUnits="userSpaceOnUse" x="5" y="4" width="17" height="18">
<path d="M13.4469 11.5874V14.9235H18.1659C17.477 16.8652 15.6221 18.2597 13.4469 18.2597C10.6879 18.2597 8.44262 16.0145 8.44262 13.2555C8.44262 10.4965 10.6879 8.25121 13.4469 8.25121C14.6429 8.25121 15.7939 8.67991 16.688 9.4589L18.8798 6.94343C17.3785 5.63565 15.4502 4.91504 13.4469 4.91504C8.84796 4.91504 5.10645 8.65655 5.10645 13.2555C5.10645 17.8544 8.84796 21.5959 13.4469 21.5959C18.0458 21.5959 21.7873 17.8544 21.7873 13.2555V11.5874H13.4469Z" fill="white"/>
</mask>
<g mask="url(#mask0_6_164)">
<path d="M0.340576 0.148926H26.5533V26.3617H0.340576V0.148926Z" fill="white"/>
</g>
</svg>
