<svg width="27" height="27" viewBox="0 0 27 27" fill="none" xmlns="http://www.w3.org/2000/svg">
<path d="M24.1701 6.8617C23.4246 7.19204 22.6247 7.41607 21.7842 7.51609C22.6424 7.0022 23.2993 6.18709 23.6106 5.2188C22.8056 5.6947 21.9171 6.04027 20.9703 6.2276C20.2122 5.41881 19.1338 4.91504 17.9376 4.91504C15.6429 4.91504 13.7823 6.77565 13.7823 9.06913C13.7823 9.39441 13.819 9.71211 13.8899 10.0159C10.437 9.84248 7.37524 8.18819 5.32605 5.67445C4.96784 6.28707 4.76406 7.00091 4.76406 7.7629C4.76406 9.20457 5.49819 10.4766 6.61203 11.2208C5.93106 11.1981 5.2906 11.0107 4.72991 10.6994V10.7513C4.72991 12.7637 6.16271 14.4433 8.06253 14.8256C7.71445 14.9193 7.34741 14.9712 6.96769 14.9712C6.69937 14.9712 6.43989 14.9446 6.18548 14.894C6.71453 16.5457 8.24861 17.7469 10.0662 17.7798C8.64478 18.8937 6.85251 19.5556 4.90585 19.5556C4.57045 19.5556 4.24007 19.5354 3.91479 19.4987C5.75389 20.6796 7.93726 21.3682 10.2839 21.3682C17.9276 21.3682 22.1057 15.037 22.1057 9.54633L22.0918 9.0084C22.9082 8.42613 23.6144 7.69455 24.1701 6.8617Z" fill="#010002"/>
<mask id="mask0_6_153" style="mask-type:alpha" maskUnits="userSpaceOnUse" x="3" y="4" width="22" height="18">
<path d="M24.1701 6.8617C23.4246 7.19204 22.6247 7.41607 21.7842 7.51609C22.6424 7.0022 23.2993 6.18709 23.6106 5.2188C22.8056 5.6947 21.9171 6.04027 20.9703 6.2276C20.2122 5.41881 19.1338 4.91504 17.9376 4.91504C15.6429 4.91504 13.7823 6.77565 13.7823 9.06913C13.7823 9.39441 13.819 9.71211 13.8899 10.0159C10.437 9.84248 7.37524 8.18819 5.32605 5.67445C4.96784 6.28707 4.76406 7.00091 4.76406 7.7629C4.76406 9.20457 5.49819 10.4766 6.61203 11.2208C5.93106 11.1981 5.2906 11.0107 4.72991 10.6994V10.7513C4.72991 12.7637 6.16271 14.4433 8.06253 14.8256C7.71445 14.9193 7.34741 14.9712 6.96769 14.9712C6.69937 14.9712 6.43989 14.9446 6.18548 14.894C6.71453 16.5457 8.24861 17.7469 10.0662 17.7798C8.64478 18.8937 6.85251 19.5556 4.90585 19.5556C4.57045 19.5556 4.24007 19.5354 3.91479 19.4987C5.75389 20.6796 7.93726 21.3682 10.2839 21.3682C17.9276 21.3682 22.1057 15.037 22.1057 9.54633L22.0918 9.0084C22.9082 8.42613 23.6144 7.69455 24.1701 6.8617Z" fill="white"/>
</mask>
<g mask="url(#mask0_6_153)">
<path d="M0.340332 0.148926H26.5531V26.3617H0.340332V0.148926Z" fill="white"/>
</g>
</svg>
